<svg width="1200" height="600" viewBox="0 0 1200 600" xmlns="http://www.w3.org/2000/svg">
  <defs>
    <linearGradient id="bg" x1="0%" y1="0%" x2="100%" y2="100%">
      <stop offset="0%" style="stop-color:#111827;stop-opacity:1" />
      <stop offset="100%" style="stop-color:#1f2937;stop-opacity:1" />
    </linearGradient>
    <linearGradient id="accent" x1="0%" y1="0%" x2="100%" y2="0%">
      <stop offset="0%" style="stop-color:#FF9800;stop-opacity:1" />
      <stop offset="100%" style="stop-color:#2196F3;stop-opacity:1" />
    </linearGradient>
  </defs>
  
  <rect width="1200" height="600" fill="url(#bg)"/>
  
  <circle cx="180" cy="140" r="70" fill="#FF9800" opacity="0.12"/>
  <circle cx="1020" cy="460" r="90" fill="#2196F3" opacity="0.12"/>
  
  <g transform="translate(90, 180)">
    <circle cx="50" cy="50" r="40" fill="url(#accent)" opacity="0.2"/>
    <path d="M50 22 C37 22 28 31 28 43 C28 52 32 59 37 64 L37 75 C37 77.5 39 79.5 41.5 79.5 L58.5 79.5 C61 79.5 63 77.5 63 75 L63 64 C68 59 72 52 72 43 C72 31 63 22 50 22 Z M43 83 L57 83 C58 83 59 84 59 85 C59 86 58 87 57 87 L43 87 C42 87 41 86 41 85 C41 84 42 83 43 83 Z" 
          fill="#FF9800"/>
  </g>
  
  <text x="230" y="270" font-family="system-ui, sans-serif" font-size="68" font-weight="bold" fill="white">
    Lights Pi
  </text>
  
  <text x="230" y="330" font-family="system-ui, sans-serif" font-size="32" fill="#9CA3AF">
    Professional Studio Lighting Control for $35
  </text>
  
  <g transform="translate(230, 390)">
    <text y="0" font-family="system-ui, sans-serif" font-size="22" fill="#FF9800">✓</text>
    <text x="35" y="0" font-family="system-ui, sans-serif" font-size="22" fill="#D1D5DB">Open Source</text>
    
    <text x="200" y="0" font-family="system-ui, sans-serif" font-size="22" fill="#2196F3">✓</text>
    <text x="235" y="0" font-family="system-ui, sans-serif" font-size="22" fill="#D1D5DB">Self-Hosted</text>
    
    <text x="400" y="0" font-family="system-ui, sans-serif" font-size="22" fill="#9C27B0">✓</text>
    <text x="435" y="0" font-family="system-ui, sans-serif" font-size="22" fill="#D1D5DB">No Subscriptions</text>
  </g>
  
  <text x="230" y="500" font-family="system-ui, sans-serif" font-size="26" fill="url(#accent)" font-weight="600">
    lights.griffen.codes
  </text>
</svg>
