<svg width="1200" height="600" viewBox="0 0 1200 600" xmlns="http://www.w3.org/2000/svg">
  <defs>
    <linearGradient id="bg" x1="0%" y1="0%" x2="100%" y2="100%">
      <stop offset="0%" style="stop-color:#111827;stop-opacity:1" />
      <stop offset="100%" style="stop-color:#1f2937;stop-opacity:1" />
    </linearGradient>
    <linearGradient id="accent" x1="0%" y1="0%" x2="100%" y2="0%">
      <stop offset="0%" style="stop-color:#FF9800;stop-opacity:1" />
      <stop offset="100%" style="stop-color:#2196F3;stop-opacity:1" />
    </linearGradient>
    <linearGradient id="lightBeam1" x1="0%" y1="0%" x2="0%" y2="100%">
      <stop offset="0%" style="stop-color:#FF9800;stop-opacity:0.6" />
      <stop offset="100%" style="stop-color:#FF9800;stop-opacity:0" />
    </linearGradient>
    <linearGradient id="lightBeam2" x1="0%" y1="0%" x2="0%" y2="100%">
      <stop offset="0%" style="stop-color:#2196F3;stop-opacity:0.6" />
      <stop offset="100%" style="stop-color:#2196F3;stop-opacity:0" />
    </linearGradient>
    <linearGradient id="lightBeam3" x1="0%" y1="0%" x2="0%" y2="100%">
      <stop offset="0%" style="stop-color:#9C27B0;stop-opacity:0.6" />
      <stop offset="100%" style="stop-color:#9C27B0;stop-opacity:0" />
    </linearGradient>
    <filter id="glow">
      <feGaussianBlur stdDeviation="4" result="coloredBlur"/>
      <feMerge>
        <feMergeNode in="coloredBlur"/>
        <feMergeNode in="SourceGraphic"/>
      </feMerge>
    </filter>
  </defs>
  
  <rect width="1200" height="600" fill="url(#bg)"/>
  
  <!-- Lighting Truss/Rack - Centered -->
  <g transform="translate(400, 60)">
    <!-- Horizontal truss bar -->
    <rect x="0" y="0" width="400" height="20" fill="#4B5563" rx="2"/>
    <rect x="0" y="5" width="400" height="3" fill="#6B7280"/>
    <rect x="0" y="12" width="400" height="3" fill="#374151"/>
    
    <!-- Vertical support brackets -->
    <rect x="-5" y="-30" width="10" height="50" fill="#374151" rx="2"/>
    <rect x="395" y="-30" width="10" height="50" fill="#374151" rx="2"/>
    
    <!-- Cross bracing -->
    <line x1="0" y1="-25" x2="50" y2="0" stroke="#4B5563" stroke-width="3"/>
    <line x1="50" y1="-25" x2="0" y2="0" stroke="#4B5563" stroke-width="3"/>
    <line x1="350" y1="-25" x2="400" y2="0" stroke="#4B5563" stroke-width="3"/>
    <line x1="400" y1="-25" x2="350" y2="0" stroke="#4B5563" stroke-width="3"/>
    
    <!-- Light Fixture 1 (Orange) -->
    <g transform="translate(60, 20)">
      <!-- Mounting clamp -->
      <rect x="-8" y="-5" width="16" height="10" fill="#374151" rx="2"/>
      <!-- Fixture body -->
      <rect x="-25" y="5" width="50" height="35" fill="#1F2937" rx="3"/>
      <rect x="-20" y="10" width="40" height="25" fill="#111827" rx="2"/>
      <!-- Lens -->
      <circle cx="0" cy="22" r="15" fill="#FF9800" opacity="0.8" filter="url(#glow)"/>
      <circle cx="0" cy="22" r="10" fill="#FFB74D" opacity="0.9"/>
      <!-- Light beam - wider and longer -->
      <polygon points="-30,40 30,40 110,380 -110,380" fill="url(#lightBeam1)" opacity="0.4"/>
    </g>
    
    <!-- Light Fixture 2 (Blue) -->
    <g transform="translate(200, 20)">
      <!-- Mounting clamp -->
      <rect x="-8" y="-5" width="16" height="10" fill="#374151" rx="2"/>
      <!-- Fixture body -->
      <rect x="-25" y="5" width="50" height="35" fill="#1F2937" rx="3"/>
      <rect x="-20" y="10" width="40" height="25" fill="#111827" rx="2"/>
      <!-- Lens -->
      <circle cx="0" cy="22" r="15" fill="#2196F3" opacity="0.8" filter="url(#glow)"/>
      <circle cx="0" cy="22" r="10" fill="#64B5F6" opacity="0.9"/>
      <!-- Light beam - wider and longer -->
      <polygon points="-30,40 30,40 110,380 -110,380" fill="url(#lightBeam2)" opacity="0.4"/>
    </g>
    
    <!-- Light Fixture 3 (Purple) -->
    <g transform="translate(340, 20)">
      <!-- Mounting clamp -->
      <rect x="-8" y="-5" width="16" height="10" fill="#374151" rx="2"/>
      <!-- Fixture body -->
      <rect x="-25" y="5" width="50" height="35" fill="#1F2937" rx="3"/>
      <rect x="-20" y="10" width="40" height="25" fill="#111827" rx="2"/>
      <!-- Lens -->
      <circle cx="0" cy="22" r="15" fill="#9C27B0" opacity="0.8" filter="url(#glow)"/>
      <circle cx="0" cy="22" r="10" fill="#BA68C8" opacity="0.9"/>
      <!-- Light beam - wider and longer -->
      <polygon points="-30,40 30,40 110,380 -110,380" fill="url(#lightBeam3)" opacity="0.4"/>
    </g>
  </g>
  
  <!-- Main Text - Centered with larger, bolder headline -->
  <text x="600" y="300" font-family="system-ui, sans-serif" font-size="80" font-weight="900" fill="white" text-anchor="middle" letter-spacing="8">
    Lights Pi
  </text>
  
  <!-- Subtitle - Centered -->
  <text x="600" y="370" font-family="system-ui, sans-serif" font-size="36" fill="#9CA3AF" text-anchor="middle" letter-spacing="3">
    QLC+ Lighting Controller for the Raspberry Pi
  </text>
  
  <!-- Call to Action -->
  <g transform="translate(600, 425)">
    <rect x="-110" y="-18" width="220" height="46" fill="url(#accent)" rx="8"/>
    <text x="0" y="10" font-family="system-ui, sans-serif" font-size="26" font-weight="700" fill="white" text-anchor="middle">
      Get Started Free
    </text>
  </g>
  
  <!-- Features - Centered -->
  <g transform="translate(600, 510)">
    <text x="-170" y="0" font-family="system-ui, sans-serif" font-size="20" fill="#FF9800">✓</text>
    <text x="-140" y="0" font-family="system-ui, sans-serif" font-size="20" fill="#D1D5DB">Open Source</text>
    
    <text x="-5" y="0" font-family="system-ui, sans-serif" font-size="20" fill="#2196F3">✓</text>
    <text x="25" y="0" font-family="system-ui, sans-serif" font-size="20" fill="#D1D5DB">Self-Hosted</text>
    
    <text x="145" y="0" font-family="system-ui, sans-serif" font-size="20" fill="#9C27B0">✓</text>
    <text x="175" y="0" font-family="system-ui, sans-serif" font-size="20" fill="#D1D5DB">No Subscriptions</text>
  </g>
</svg>
